<?xml version="1.0" encoding="utf-8"?>
<!-- Generator: Adobe Illustrator 19.2.1, SVG Export Plug-In . SVG Version: 6.00 Build 0)  -->
<svg version="1.1" xmlns="http://www.w3.org/2000/svg" xmlns:xlink="http://www.w3.org/1999/xlink" x="0px" y="0px"
	 viewBox="0 0 3710 3710" style="enable-background:new 0 0 3710 3710;" xml:space="preserve">
<style type="text/css">
	.st0{display:none;}
	.st1{display:inline;}
	.st2{fill:#FD5B03;}
	.st3{fill:#F25602;}
</style>
<g id="Background" class="st0">
	<g class="st1">
		<g>
			<g>
				<rect class="st2" width="3710" height="3710"/>
			</g>
		</g>
	</g>
</g>
<g id="Illustration">
	<g>
		<g>
			<g>
				<g>
					<g>
						<path class="st3" d="M3143.8,1997.4c130.4-11.1,233.9-126.4,231.1-257.3c-2.7-131.1-110.6-228.2-240.9-217
							c-5.8,0.4-11.5,1.2-17.2,2.2c-1,0.1-1.9,0.4-3,0.5c-0.1-0.6-0.3-1.1-0.4-1.7c-13.6-64.3-32.1-127.1-55.4-188
							c6.1-3.4,12-6.9,17.9-10.7c111.5-75.1,147.2-223.6,79.7-331.5c-9.2-14.6-19.8-27.8-31.7-39.4
							c-50.4-49.7-122.2-70.9-193.1-59.4c-34.2,5.5-68.1,18.7-99.5,39.8c-5.7,3.7-11,8-16.5,12.2c-17.1-18.2-35-36-53.4-53.1
							c-1.3-1.4-2.7-2.6-4-3.7c-27.7-25.7-56.7-50.1-87.2-73.2c3.6-5.7,7.3-11.6,10.5-17.8c60.1-113.8,24.6-248.5-78.6-308.7
							c-0.9-0.6-1.9-1.2-3-1.7c-3.8-2.1-7.6-4.2-11.5-6.1c-114.3-55.8-257.9-4.6-320.7,114.4c-3.2,6.2-6,12.5-8.7,18.7
							c-38.9-10.5-78.1-18.9-117.5-25.4c-25.6-4.2-51.3-7.7-76.9-10.2c0.4-6.6,0.8-13.3,0.6-19.9c-2.2-102.9-68.9-186.8-160.6-211.7
							c-13.5-3.9-27.5-8.4-41.8-9.5c-2.1-0.1-4.1-0.2-6.2-0.2h-0.7c-3.8,0-7.5,1.7-11.3,1.7c-6.7,0-13.6,1.1-20.5,1.7
							c-130.3,11.1-233.8,126.9-231.1,257.8c0.1,6.9,0.7,13.8,1.4,20.4c-65.4,17.9-129.7,41-192.1,68.8c-3-5.9-6.1-11.6-9.6-17.2
							c-7.3-11.6-15.4-22.2-24.5-31.9c-0.1-0.1-0.3-0.2-0.4-0.4c-50.6-54.8-125.6-78.6-200-66.5c-27.7,4.4-55.3,13.8-81.3,28.5
							c-6.1,3.4-12.2,7.1-18.1,11.1C956,688.1,920.4,836.4,987.8,944.4c3.5,5.5,7.3,10.7,11.1,15.8
							c-49.3,47.5-95.7,99.1-138.5,154.4c-5.4-3.2-11.1-6.5-17-9.5c-29.1-14.2-60.1-21.4-91.3-22.3c-15-0.6-30.2,0.4-45.2,2.9
							c-75,12.2-145.2,60.1-184.2,134c-62.8,119-21.1,260.8,93.1,316.7c6,2.9,12,5.2,18.1,7.6c-21.2,65.8-37.3,132.2-48.1,198.6
							c-6.5,0-13.1,0.1-19.8,0.7c-130.3,11.1-233.8,126.4-231.1,257.5c1.9,93,56.7,168.9,135.1,201c0.1,0,0.1,2.6,0.3,2.6
							c1.2,0.5,2.2,3.7,3.4,3.7h0.1c31.2,12.5,65.7,15.1,102.2,12c6.7-0.5,13.5-2.7,20.1-4c13.6,64.9,32.4,127.8,55.8,189.2
							c-6,3.4-11.9,6.6-17.7,10.4c-111.5,75.3-147.3,220.8-79.7,328.7c42.1,67.2,114.4,99.2,189.9,99.2c0.1,0,0.1,0,0.3,0
							c26.7,0,53.6-2.7,79.9-12.5c0.3,0,0.6-0.1,0.9-0.2c18.3-6.7,36.1-14.6,53.2-26c5.8-3.9,11.1-7.5,16.4-11.7
							c44,46.9,92.4,90.6,144.7,130.2c-3.8,5.7-7.2,12-10.5,18.1c-62.8,119-21.1,260.8,93.1,316.6c4.3,2.1,8.8,4.1,13.2,6
							c0.1,0,0.1,0.1,0.3,0.1c111.8,45.7,246.8-6.1,307.1-120.5c1.2-2.2,2.3-4.5,3.4-6.7c1.9-4,3.8-8,5.4-12
							c64.1,17.2,129,29.2,194.3,35.6c-0.4,6.7-0.7,13.3-0.5,20.1c1.9,93.1,57,166.4,135.6,198.5c1.6,0.6,3.2,1.2,4.8,1.9
							c18.3,6.9,37.7,10.8,58,10.8h0.4c13.7,12.5,27.9,4.2,42.2,3c8-0.7,15.9-1.7,23.8-3.2c113.3-21.1,199.9-120.1,205.8-235.8
							c0.3-5.1-1-10.3-1-15.7v-1.4c0-6.6,0-12.6,0-18.8v-0.6c38.9-9.6,69.6-20.2,103.5-32.5c0.1,0,0.4-3.2,0.5-3.2
							c0.4-0.1,1,9.2,1.6-3.3h0.1c29.4,0,58.5-19.4,87.4-32.2c3,5.9,6.1,13.4,9.6,19c25.1,40.1,60.9,69.7,101.8,86.1
							c21.6,9,44.7,14.6,68.4,16.3c51.7,3.7,106-9.5,154-41.9c29.7-19.9,53.9-45,72.1-73.2c45.7-69.7,55.4-157.7,21.5-232.2
							c-4-8.8-8.7-17.4-14-25.9c-3.4-5.5-7.3-10.7-11-15.8c1-1,2.2-2.1,3.1-3.1c42.7-41.2,83-85.7,120.7-133
							c4.9-6,9.7-12.2,14.5-18.3c5.6,3.4,11.1,6.6,17.1,9.5c4.5,2.2,8.9,4.2,13.6,6c111.8,45.7,246.6-6,307-120.5
							c62.8-119,21.1-260.7-93.1-316.5c-6-3-11.9-5.4-18-7.7c21.2-65.8,37.2-132.2,47.9-198.6
							C3130.6,1998.1,3137.2,1998,3143.8,1997.4z M1648.6,2721c-0.5,0-1.2-0.1-1.7-0.2c-0.1,0-0.3,0-0.4-0.1
							c-69.8-13.1-138.5-35.4-204.5-67.8c-414.9-202.6-566.3-717.3-338.2-1149.5c98.7-187.1,252.3-328,428.5-411.2
							c127.6-60.4,267.1-90.5,406.1-85.9c112.4,3.6,224.5,30,329.7,81.5c3.9,1.9,7.8,3.9,11.5,5.9
							c406.2,206.4,552.7,715.4,326.7,1143.6c-142.1,269.2-397.9,443-671,486.8C1840.4,2739.2,1743.5,2738.7,1648.6,2721z"/>
					</g>
				</g>
			</g>
		</g>
	</g>
</g>
</svg>
