<?xml version="1.0" encoding="utf-8"?>
<!-- Generator: Adobe Illustrator 19.2.1, SVG Export Plug-In . SVG Version: 6.00 Build 0)  -->
<svg version="1.1" xmlns="http://www.w3.org/2000/svg" xmlns:xlink="http://www.w3.org/1999/xlink" x="0px" y="0px"
	 viewBox="0 0 3710 3710" style="enable-background:new 0 0 3710 3710;" xml:space="preserve">
<style type="text/css">
	.st0{fill:#FD5B03;}
	.st1{fill:none;stroke:#FFFFFF;stroke-width:20;stroke-miterlimit:10;}
	.st2{stroke:#FFFFFF;stroke-miterlimit:10;}
	.st3{fill:none;stroke:#000000;stroke-width:6;stroke-miterlimit:10;}
	.st4{fill:#E5E5E5;}
	.st5{fill:#FFFFFF;stroke:#FFFFFF;stroke-miterlimit:10;}
	.st6{fill:#FFFFFF;}
	.st7{font-family:'MyriadPro-Bold';}
	.st8{font-size:437.3522px;}
	.st9{font-size:364.4601px;}
	.st10{font-size:218.6761px;}
	.st11{opacity:0.56;fill:#FFFFFF;}
	.st12{font-size:291.5681px;}
	.st13{opacity:0.57;fill:#FFFFFF;}
</style>
<g id="Background">
	<g>
		<g>
			<g>
				<rect class="st0" width="3710" height="3710"/>
			</g>
		</g>
	</g>
</g>
<g id="Illustration">
	<g>
		<g>
			<g>
				<g>
					<g>
						<path class="st1" d="M2563.2,2521.1c58.1-5.1,104.1-58.5,102.8-119c-1.2-60.6-49.2-105.5-107.2-100.4c-2.6,0.2-5.1,0.6-7.7,1
							c-0.5,0.1-0.9,0.2-1.3,0.2c-0.1-0.3-0.1-0.5-0.2-0.8c-6.1-29.7-14.3-58.8-24.7-87c2.7-1.6,5.4-3.2,8-5
							c49.6-34.8,65.5-103.4,35.5-153.3c-4.1-6.7-8.8-12.9-14.1-18.2c-22.4-23-54.4-32.8-86-27.5c-15.2,2.5-30.3,8.6-44.3,18.4
							c-2.5,1.7-4.9,3.7-7.3,5.6c-7.6-8.4-15.6-16.7-23.7-24.6c-0.6-0.6-1.2-1.2-1.8-1.7c-12.3-11.9-25.2-23.2-38.8-33.8
							c1.6-2.7,3.2-5.4,4.7-8.2c26.7-52.6,11-114.9-35-142.8c-0.4-0.3-0.9-0.6-1.3-0.8c-1.7-1-3.4-2-5.1-2.8
							c-50.8-25.8-114.8-2.1-142.7,52.9c-1.4,2.9-2.7,5.8-3.9,8.6c-17.3-4.8-34.8-8.8-52.3-11.8c-11.4-2-22.8-3.6-34.2-4.7
							c0.2-3.1,0.3-6.2,0.3-9.2c-1-47.6-30.7-86.4-71.5-97.9c-6-1.8-12.2-3.9-18.6-4.4c-0.9-0.1-1.8-0.1-2.8-0.1h-0.3
							c-1.7,0-3.3,0.8-5,0.8c-3,0-6.1,0.5-9.1,0.8c-58,5.1-104.1,58.7-102.8,119.3c0.1,3.2,0.3,6.4,0.6,9.5
							c-29.1,8.3-57.7,19-85.5,31.8c-1.3-2.7-2.7-5.4-4.3-8c-3.2-5.4-6.9-10.3-10.9-14.8c-0.1-0.1-0.1-0.1-0.2-0.2
							c-22.5-25.4-55.9-36.4-89-30.8c-12.3,2-24.6,6.4-36.2,13.2c-2.7,1.6-5.4,3.3-8.1,5.1c-49.6,34.8-65.5,103.4-35.5,153.3
							c1.6,2.5,3.2,5,5,7.3c-22,22-42.6,45.8-61.6,71.4c-2.4-1.5-5-3-7.6-4.4c-13-6.6-26.7-9.9-40.6-10.3
							c-6.7-0.3-13.4,0.2-20.1,1.3c-33.4,5.6-64.6,27.8-82,62c-28,55.1-9.4,120.7,41.4,146.5c2.7,1.3,5.4,2.4,8.1,3.5
							c-9.5,30.4-16.6,61.2-21.4,91.9c-2.9,0-5.8,0.1-8.8,0.3c-58,5.1-104.1,58.5-102.8,119.1c0.9,43,25.3,78.1,60.1,93
							c0.1,0,0.1,1.2,0.1,1.2c0.5,0.2,1,1.7,1.5,1.7h0.1c13.9,5.8,29.2,7,45.5,5.6c3-0.2,6-1.3,8.9-1.8c6.1,30,14.4,59.1,24.8,87.5
							c-2.7,1.6-5.3,3-7.9,4.8c-49.6,34.8-65.5,102.1-35.5,152.1c18.7,31.1,50.9,45.9,84.5,45.9c0.1,0,0.1,0,0.1,0
							c11.9,0,23.9-1.3,35.6-5.8c0.1,0,0.3-0.1,0.4-0.1c8.1-3.1,16.1-6.7,23.7-12c2.6-1.8,5-3.5,7.3-5.4
							c19.6,21.7,41.1,41.9,64.4,60.2c-1.7,2.7-3.2,5.5-4.7,8.4c-28,55.1-9.4,120.7,41.4,146.5c1.9,1,3.9,1.9,5.9,2.8
							c0.1,0,0.1,0.1,0.1,0.1c49.7,21.2,109.8-2.8,136.7-55.7c0.5-1,1-2.1,1.5-3.1c0.9-1.8,1.7-3.7,2.4-5.5
							c28.5,8,57.4,13.5,86.5,16.5c-0.2,3.1-0.3,6.2-0.2,9.3c0.9,43.1,25.4,77,60.4,91.8c0.7,0.3,1.4,0.6,2.1,0.9
							c8.1,3.2,16.8,5,25.8,5h0.2c6.1,5.8,12.4,2,18.8,1.4c3.6-0.3,7.1-0.8,10.6-1.5c50.4-9.7,89-55.6,91.6-109.1
							c0.1-2.4-0.4-4.8-0.4-7.3v-0.6c0-3.1,0-5.8,0-8.7v-0.3c17.3-4.4,31-9.3,46.1-15c0.1,0,0.2-1.5,0.2-1.5
							c0.2-0.1,0.5,4.2,0.7-1.5h0.1c13.1,0,26.1-9,38.9-14.9c1.3,2.7,2.7,6.2,4.3,8.8c11.2,18.6,27.1,32.2,45.3,39.8
							c9.6,4.1,19.9,6.7,30.4,7.6c23,1.7,47.2-4.4,68.5-19.4c13.2-9.2,24-20.8,32.1-33.9c20.4-32.2,24.7-73,9.6-107.4
							c-1.8-4.1-3.9-8.1-6.2-12c-1.5-2.5-3.2-5-4.9-7.3c0.5-0.5,1-1,1.4-1.4c19-19.1,37-39.7,53.7-61.5c2.2-2.8,4.3-5.6,6.5-8.5
							c2.5,1.6,5,3.1,7.6,4.4c2,1,4,2,6.1,2.8c49.7,21.2,109.8-2.8,136.6-55.7c28-55.1,9.4-120.6-41.4-146.4c-2.7-1.4-5.3-2.5-8-3.6
							c9.5-30.4,16.5-61.2,21.3-91.9C2557.3,2521.5,2560.3,2521.4,2563.2,2521.1z M1897.8,2855.9c-0.2,0-0.5-0.1-0.8-0.1
							c-0.1,0-0.1,0-0.2-0.1c-31.1-6.1-61.6-16.4-91-31.4c-184.6-93.7-252-331.8-150.5-531.7c43.9-86.5,112.3-151.7,190.7-190.2
							c56.8-28,118.9-41.9,180.7-39.7c50,1.7,99.9,13.9,146.7,37.7c1.7,0.9,3.5,1.8,5.1,2.7c180.8,95.5,246,330.9,145.4,529
							c-63.2,124.5-177.1,204.9-298.6,225.2C1983.2,2864.3,1940.1,2864.1,1897.8,2855.9z"/>
					</g>
				</g>
			</g>
			<g>
				<path class="st2" d="M1276,2125c44.2,15.2,93.4-11.2,109.9-59.1c16.5-47.8-6-99-50.2-114.2c-2.3-0.8-4.6-1.4-6.9-2
					c4.2-25.8,6.6-51.5,7-77c2.4-0.3,4.7-0.7,7.1-1.3c46.5-10.7,77.9-59.2,70.1-108.2c-7.8-49-51.9-80.1-98.4-69.4
					c-2.4,0.6-4.8,1.3-7.1,2c-8.3-23.7-18.3-46.6-30-68.4c2-1.6,4-3.2,5.9-4.9c36.4-33.8,41.5-91.3,11.5-128.4
					c-30-37.1-83.8-39.8-120.2-5.9c-1.9,1.7-3.6,3.6-5.3,5.4c-18.4-15.4-38.1-29.3-59-41.5c1-2.4,2-4.7,2.9-7.2
					c16.5-47.8,39.4-100.8-5.1-115.3c-102.7-33.6-138.5,12.3-154.9,60.2c-0.9,2.5-1.5,5-2.2,7.5c-24.1-3.2-48.1-4.5-72.1-3.7
					c-0.2-2.5-0.4-5-0.8-7.5c-7.8-49,3.1-77.7-44.3-72c-103.4,12.3-131.9,61.9-124.1,110.9c0.4,2.6,1,5,1.6,7.5
					c-22.7,10-44.7,21.8-65.8,35.4c-1.4-2-2.8-4.1-4.4-6c-30-37.1-83.8-39.8-120.2-5.9c-36.4,33.8-41.5,91.3-11.5,128.4
					c1.5,1.9,3.2,3.6,4.8,5.4c-15.4,20.3-29.4,42-41.9,64.9c-2.2-1-4.4-1.9-6.7-2.7c-44.2-15.2-93.4,11.2-109.9,59.1
					c-16.5,47.8,6,99,50.2,114.2c2.3,0.8,4.6,1.4,6.9,2c-4.2,25.8-6.6,51.5-7,77c-2.4,0.3-4.7,0.7-7.1,1.3
					c-46.5,10.7-77.9,59.2-70.1,108.2c7.8,49,51.9,80.1,98.4,69.4c2.4-0.6,4.8-1.3,7.1-2c8.3,23.7,18.3,46.6,30,68.4
					c-2,1.6-4,3.2-5.9,4.9c-36.4,33.8-41.5,91.3-11.5,128.4c30,37.1,113.4,44.7,149.8,10.9c1.9-1.7-26-8.5-24.3-10.3
					c18.4,15.4,38.1,29.3,59,41.5c-1,2.4-2,4.7-2.9,7.2c-16.5,47.8,6,99,50.2,114.2c44.2,15.2,93.4-11.2,109.9-59.1
					c0.9-2.5,1.5-5,2.2-7.5c24.1,3.3,48.1,4.5,72.1,3.7c0.2,2.5,0.4,5,0.8,7.5c7.8,49,51.9,80.1,98.4,69.4
					c46.5-10.7,77.9-59.2,70.1-108.2c-0.4-2.6-1-5-1.6-7.5c22.7-10,44.7-21.8,65.8-35.4c1.4,2,2.8,4.1,4.4,6
					c30,37.1,83.8,39.8,120.2,5.9c36.4-33.8,41.5-91.3,11.5-128.4c-1.5-1.9-3.2-3.6-4.8-5.4c15.4-20.3,29.4-42,41.9-64.9
					C1271.5,2123.3,1273.7,2124.2,1276,2125z M762.4,2203c-160.4-55.3-242-240.9-182.1-414.6c59.9-173.7,238.4-269.7,398.9-214.4
					c160.4,55.3,242,240.9,182.1,414.6C1101.4,2162.2,922.8,2258.2,762.4,2203z"/>
				<path class="st3" d="M1388,1870.4c46.5-10.7,77.8-59.2,70-108.2c-7.8-49-51.8-80.1-98.4-69.4c-2.4,0.5-4.8,1.3-7.1,2.1
					c-8.3-23.7-18.4-46.6-30-68.5c2-1.6,3.9-3.2,5.9-4.9c36.4-33.8,41.5-91.3,11.5-128.4c-30.1-37.1-83.8-39.8-120.2-6
					c-1.9,1.8-3.6,3.6-5.3,5.4c-18.3-15.4-38-29.3-59-41.5c1-2.4,2-4.8,2.8-7.2c16.5-47.9-6-99-50.1-114.2
					c-44.2-15.2-93.4,11.2-109.9,59c-0.8,2.5-1.6,5-2.2,7.4c-24.1-3.2-48.2-4.5-72.1-3.6c-0.2-2.5-0.5-5-0.8-7.5
					c-7.8-49-51.9-80.1-98.4-69.4c-46.6,10.7-77.9,59.2-70.1,108.2c0.4,2.6,1,5.1,1.6,7.5c-22.7,10-44.7,21.9-65.8,35.4
					c-1.4-2.1-2.8-4.1-4.4-6c-18.9-23.3-47.1-33-74.4-28.6c-16.3,2.5-32.3,10-45.8,22.7c-36.4,33.8-41.5,91.3-11.5,128.4
					c1.5,1.9,3.2,3.6,4.8,5.4c-15.4,20.3-29.4,42-42,65c-2.2-1-4.4-2-6.7-2.7c-44.2-15.2-93.4,11.2-109.9,59
					c-16.5,47.8,6,99,50.1,114.2c2.3,0.8,4.6,1.4,6.9,2c-4.3,25.8-6.6,51.5-7,77c-2.4,0.3-4.8,0.7-7.1,1.3
					c-46.5,10.7-77.9,59.2-70.1,108.3c7.8,49,51.9,80.1,98.4,69.4c2.4-0.6,4.8-1.3,7.1-2.1c8.3,23.7,18.4,46.6,30.1,68.4
					c-2,1.6-4,3.2-5.9,5c-36.4,33.8-41.5,91.3-11.5,128.4c30,37.2,83.9,39.8,120.2,6c1.8-1.7,3.6-3.5,5.3-5.4
					c18.4,15.4,38.1,29.3,59,41.6c-1,2.3-2,4.7-2.9,7.2c-16.4,47.8,6,98.9,50.2,114.2c44.2,15.2,93.4-11.2,109.8-59.1
					c0.8-2.5,1.5-5,2.2-7.4c24.1,3.3,48.1,4.5,72.1,3.6c0.2,2.5,0.4,5,0.8,7.5c7.8,49.1,51.9,80.1,98.4,69.4
					c46.5-10.8,77.9-59.2,70.1-108.3c-0.4-2.6-1-5-1.6-7.5c22.7-10,44.7-21.8,65.8-35.4c1.3,2.1,2.7,4,4.4,6
					c30,37.1,83.9,39.8,120.2,5.9c28.5-26.5,37.8-67.5,26.1-101.8c-3.3-9.6-8.1-18.5-14.6-26.6c-1.5-1.9-3.2-3.7-4.8-5.4
					c15.4-20.4,29.4-42,42-65c2.2,1,4.3,1.9,6.6,2.7c44.2,15.2,93.4-11.2,109.8-59.1c16.5-47.8-6-98.9-50.1-114.2
					c-2.3-0.8-4.6-1.4-6.9-2c4.2-25.8,6.5-51.5,7-77C1383.2,1871.3,1385.6,1871,1388,1870.4z M1206.3,1987.4
					c-40.6,117.8-135.8,199.9-242.9,223.2c-50.8,11.1-104.3,9-155.9-8.8c-160.4-55.3-242-240.9-182.1-414.6
					c26.8-77.7,77.2-139.8,139.2-179.8c76.6-49.6,171-65.3,259.7-34.7C1184.7,1628.1,1266.2,1813.7,1206.3,1987.4z"/>
			</g>
			<g>
				<g>
					<path class="st4" d="M3189.1,1945.5c79.1,23.4,163.7-27,189.1-112.6c25.4-85.6-18.2-174-97.3-197.4c-4.1-1.2-8.2-2.1-12.3-2.9
						c5.5-45.8,7.6-91.3,6.3-136.3c4.1-0.8,8.3-1.6,12.4-2.8c81.2-22.5,132.7-110.4,115.1-196.3c-17.6-85.9-97.6-137.2-178.8-114.7
						c-4.2,1.2-8.4,2.6-12.4,4.2c-16.5-41.1-36-80.7-58.3-118.3c3.4-2.9,6.7-5.9,10-9.2c61.5-62.4,66.1-164.2,10.3-227.3
						c-55.8-63.1-150.9-63.6-212.4-1.2c-3.1,3.2-6,6.6-8.9,10c-33.6-25.7-69.4-48.6-107.3-68.6c1.6-4.2,3.2-8.5,4.5-13
						c25.3-85.6,61.6-180.7-17.9-202.9c-183.7-51.3-243.1,32.5-268.5,118.1c-1.3,4.4-2.3,8.9-3.3,13.3c-42.7-3.9-85.2-4.1-127.3-0.8
						c-0.5-4.4-1.1-8.8-2-13.2c-17.6-85.9-0.6-137.2-83.7-123.6c-181.2,29.7-227.8,119.3-210.2,205.2c0.9,4.5,2.1,8.8,3.4,13.1
						c-39.2,19.4-77.1,42-113.3,67.5c-2.6-3.5-5.2-7-8.2-10.3c-55.8-63.1-150.9-63.6-212.4-1.2c-61.5,62.4-66.1,164.2-10.3,227.3
						c2.9,3.2,5.9,6.2,8.9,9.1c-25.5,37-48.5,76.3-68.9,117.7c-3.9-1.6-7.8-3-11.9-4.3c-79.1-23.4-163.7,27-189.1,112.6
						c-25.3,85.6,18.2,174,97.3,197.4c4.1,1.2,8.2,2.1,12.3,2.9c-5.5,45.8-7.6,91.3-6.3,136.3c-4.1,0.8-8.3,1.6-12.4,2.8
						c-81.2,22.5-132.7,110.4-115.1,196.3c17.6,85.9,97.6,137.2,178.8,114.6c4.2-1.2,8.4-2.6,12.4-4.2c16.5,41.1,36,80.7,58.3,118.3
						c-3.4,2.9-6.7,5.9-10,9.2c-61.5,62.4-66.1,164.2-10.3,227.3c55.8,63.1,203.4,70,264.9,7.6c3.2-3.2-46.5-13-43.6-16.4
						c33.6,25.7,69.4,48.6,107.3,68.6c-1.6,4.2-3.2,8.5-4.5,13c-25.4,85.6,18.2,174,97.3,197.4c79.1,23.4,163.7-27,189.1-112.6
						c1.3-4.4,2.3-8.9,3.3-13.3c42.7,3.9,85.2,4.1,127.3,0.8c0.5,4.4,1.1,8.8,2,13.2c17.6,85.9,97.6,137.2,178.8,114.6
						c81.2-22.5,132.7-110.4,115.1-196.3c-0.9-4.5-2.1-8.8-3.4-13.1c39.2-19.4,77.1-42,113.3-67.5c2.6,3.5,5.2,7,8.2,10.3
						c55.8,63.1,150.9,63.6,212.4,1.2c61.5-62.4,66.1-164.2,10.3-227.3c-2.9-3.2-5.9-6.2-8.9-9.1c25.5-37,48.5-76.3,68.9-117.7
						C3181,1942.8,3185,1944.3,3189.1,1945.5z M2289.7,2122.8c-287.1-85-445.2-405.9-353.2-716.8c92-310.9,399.4-494,686.5-409
						c287.1,85,445.2,405.9,353.2,716.8C2884.1,2024.7,2576.8,2207.8,2289.7,2122.8z"/>
					<path class="st5" d="M3360.3,1630c-4.1-1.2-8.2-2.1-12.3-3c5.5-45.8,7.6-91.3,6.3-136.2c4.1-0.8,8.3-1.6,12.4-2.8
						c81.2-22.5,132.7-110.4,115.1-196.2c-17.6-85.8-97.6-137.2-178.8-114.7c-4.2,1.2-8.4,2.7-12.5,4.2
						c-16.4-41.1-35.9-80.6-58.2-118.3c3.4-2.9,6.7-5.9,9.9-9.1c61.5-62.4,66.1-164.2,10.3-227.3c-55.8-63.1-150.8-63.6-212.3-1.2
						c-3.2,3.2-6.1,6.6-8.9,10c-33.6-25.7-69.4-48.7-107.3-68.7c1.7-4.2,3.2-8.5,4.5-12.9c25.4-85.6-18.2-174-97.3-197.4
						c-79.1-23.4-163.7,27-189.1,112.6c-1.3,4.5-2.3,8.9-3.2,13.3c-42.7-3.8-85.2-4.1-127.4-0.8c-0.6-4.4-1.1-8.8-2.1-13.2
						c-17.6-85.9-97.6-137.2-178.8-114.7c-81.1,22.5-132.7,110.4-115.1,196.3c0.9,4.5,2.1,8.8,3.4,13.1c-1.9,1-3.8,1.9-5.8,3
						c-37.1,18.7-73.1,40.2-107.5,64.5c-2.6-3.5-5.3-7-8.2-10.2c-55.8-63.1-150.9-63.6-212.3-1.2c-61.5,62.4-66.1,164.2-10.3,227.3
						c2.9,3.2,5.9,6.1,8.9,9.1c-25.5,37-48.6,76.3-68.9,117.7c-3.9-1.5-7.8-3-12-4.2c-79.1-23.4-163.7,27-189.1,112.6
						c-25.4,85.6,18.2,174,97.3,197.4c4.1,1.2,8.2,2.1,12.3,2.9c-5.4,45.8-7.6,91.3-6.3,136.3c-4.1,0.8-8.3,1.6-12.5,2.8
						c-81.1,22.5-132.7,110.4-115.1,196.3c17.6,85.8,97.6,137.2,178.8,114.6c4.3-1.2,8.4-2.6,12.5-4.1
						c16.5,41.1,35.9,80.6,58.3,118.3c-3.4,2.9-6.8,5.9-10,9.2c-61.4,62.4-66.1,164.2-10.3,227.3c55.8,63.1,150.9,63.6,212.4,1.2
						c3.1-3.2,6-6.6,8.9-10c33.5,25.7,69.4,48.6,107.3,68.6c-1.6,4.2-3.2,8.5-4.5,13c-25.4,85.6,18.2,174,97.3,197.4
						c79.1,23.4,163.7-27,189.1-112.6c1.3-4.4,2.3-8.9,3.3-13.3c42.6,3.8,85.2,4.1,127.3,0.8c0.6,4.4,1.2,8.8,2,13.2
						c17.6,85.8,97.6,137.2,178.8,114.7c75.6-21,125.4-98.6,117.8-178.5c-0.6-5.9-1.4-11.9-2.6-17.8c-0.9-4.5-2.1-8.8-3.4-13.1
						c39.2-19.4,77.1-42,113.3-67.5c2.6,3.5,5.2,6.9,8.1,10.2c55.8,63.1,150.9,63.6,212.4,1.2c61.5-62.4,66.1-164.2,10.3-227.3
						c-2.8-3.2-5.9-6.1-8.9-9.1c25.5-37,48.6-76.3,68.9-117.7c3.9,1.5,7.8,3,12,4.2c79,23.4,163.7-27,189-112.6
						C3482.9,1741.8,3439.4,1653.4,3360.3,1630z M3055.6,1708.4c-81.4,274.8-330.9,449.7-586,428c-33.5-2.9-67.1-9.1-100.5-19
						c-287.1-85-445.3-405.9-353.2-716.8c53.1-179.3,177.8-316,328.9-383.4c110.9-49.5,236.1-61.6,357.6-25.6
						C2989.5,1076.6,3147.6,1397.5,3055.6,1708.4z"/>
				</g>
			</g>
		</g>
		<text transform="matrix(1 0 0 1 1414.1632 819.1641)" class="st6 st7 st8">+</text>
		<text transform="matrix(1 0 0 1 1180.9064 1237.3911)" class="st7 st9">-</text>
		<text transform="matrix(1 0 0 1 975.0403 2776.8713)" class="st6 st7 st9">÷</text>
		<text transform="matrix(1 0 0 1 1180.9054 3010.125)" class="st7 st10">x</text>
		<circle class="st6" cx="1449.2" cy="1032.2" r="27.3"/>
		<circle cx="781.5" cy="2639.9" r="27.3"/>
		<text transform="matrix(1 0 0 1 975.0402 970.7793)" class="st11 st7 st12">√2</text>
		<text transform="matrix(1 0 0 1 449.8727 2706.8955)" class="st13 st7 st10">2²</text>
	</g>
</g>
</svg>
